# xmcd
#
# Track frame offsets: 
#        150
#        12830
#        22757
#        36193
#        45681
#        57403
#        68046
#        84799
#        94645
#        106456
#        118970
#        130046
#        144659
#        156664
#
# Disc length: 2241 seconds
#
# Revision: 3
# Processed by: cddbd v1.5.2PL0 Copyright (c) Steve Scherf et al.
# Submitted via: ExactAudioCopyFreeDBPlugin 1.0
#
DISCID=b608bf0e
DTITLE=The Earls Of Leicester - The Earls Of Leicester
DYEAR=2014
DGENRE=Bluegrass
TTITLE0=Big Black Train
TTITLE1=Don't Let Your Deal Go Down
TTITLE2=I'll Go Stepping Too
TTITLE3=Shuckin' The Corn
TTITLE4=Till The End Of The World Rolls 'Round
TTITLE5=Dig A Hole In The Meadow
TTITLE6=Some Old Day
TTITLE7=I Won't Be Hanging Around
TTITLE8=I Don't Care Anymore
TTITLE9=On My Mind
TTITLE10=You're Not A Drop In The Bucket
TTITLE11=Dim Lights, Thick Smoke
TTITLE12=The Wandering Boy
TTITLE13=Who Will Sing For Me
EXTD=
EXTT0=
EXTT1=
EXTT2=
EXTT3=
EXTT4=
EXTT5=
EXTT6=
EXTT7=
EXTT8=
EXTT9=
EXTT10=
EXTT11=
EXTT12=
EXTT13=
PLAYORDER=
